<svg width="24" height="24" viewBox="0 0 24 24" fill="none" xmlns="http://www.w3.org/2000/svg">
<path d="M5.44947 22.0681C7.48407 23.2755 9.4264 23.9988 11.9951 24C18.6088 24 23.9964 18.6192 24 12.0042C24.0024 5.37594 18.6404 0.00242706 12.0049 0C5.38634 0 0.00242932 5.3808 1.3944e-06 11.9945C-0.00121257 14.6946 0.79029 16.7164 2.11958 18.8316L0.90683 23.2585L5.44947 22.0681Z" fill="#46A6A2"/>
<path d="M17.4142 14.3819C17.7122 14.5309 17.9102 14.6049 17.9842 14.7289C18.0592 14.8529 18.0592 15.4479 17.8112 16.1429C17.5632 16.8369 16.3762 17.4709 15.8052 17.5559C15.2932 17.6319 14.6452 17.6639 13.9332 17.4379C13.5022 17.3009 12.9482 17.1179 12.2392 16.8119C9.25819 15.5249 7.31219 12.5229 7.16319 12.3249L7.15967 12.3202C6.9991 12.1055 5.9502 10.7029 5.9502 9.25096C5.9502 7.78796 6.71819 7.06996 6.99019 6.77196C7.26219 6.47396 7.58419 6.39996 7.78219 6.39996L8.35219 6.40996C8.53419 6.41896 8.77919 6.34096 9.02119 6.91996C9.26819 7.51496 9.86219 8.97796 9.93719 9.12596C10.0122 9.27496 10.0612 9.44896 9.96219 9.64696C9.86219 9.84596 9.81319 9.96996 9.66219 10.142C9.51319 10.316 9.35019 10.53 9.21619 10.663C9.06819 10.811 8.91319 10.972 9.08619 11.269C9.25919 11.567 9.85619 12.5399 10.7392 13.3279C11.8742 14.3409 12.8322 14.6539 13.1292 14.8029C13.4262 14.9519 13.6002 14.9269 13.7732 14.7289C13.9462 14.5309 14.5162 13.8609 14.7142 13.5639C14.9132 13.2659 15.1112 13.3159 15.3832 13.4149C15.6562 13.5139 17.1172 14.2329 17.4142 14.3819Z" fill="#293433"/>
</svg>
