<svg width="81" height="52" viewBox="0 0 81 52" fill="none" xmlns="http://www.w3.org/2000/svg">
<g clip-path="url(#clip0_1_411)">
<path fill-rule="evenodd" clip-rule="evenodd" d="M39.1816 0.69747C36.9182 -0.0460996 34.4898 -0.132091 32.1794 0.449514C29.869 1.03112 27.7716 2.25637 26.1317 3.98253C24.556 5.64107 23.4649 7.69643 22.9736 9.92579L12.4435 20.6605L12.4435 32.5131H0.0932617V34.5131L80.6774 34.5131V32.5131L35.8089 32.5131V25.1675C37.9973 25.0707 40.1259 24.4043 41.9817 23.2302C43.9944 21.9567 45.6033 20.1382 46.6209 17.9868C47.6386 15.8353 48.0231 13.4393 47.7297 11.078C47.6763 10.6484 47.6009 10.2231 47.5041 9.80378L47.5321 9.77577L47.487 9.73069C47.0463 7.87275 46.1856 6.1334 44.9635 4.64939C43.4501 2.81157 41.4449 1.44104 39.1816 0.69747ZM45.2575 9.21886C44.8493 8.02309 44.2276 6.90452 43.4167 5.91972C43.2777 5.75093 43.1338 5.58684 42.9852 5.4276L35.8089 12.594V18.6545L45.2575 9.21886ZM41.4841 4.09813C40.5968 3.45139 39.6095 2.94351 38.5557 2.59731C37.6625 2.30386 36.7387 2.13223 35.8089 2.0833V9.76556L41.4841 4.09813ZM33.8062 2.16796C33.4245 2.2206 33.0449 2.29421 32.669 2.38885C31.1421 2.77321 29.7259 3.49195 28.5201 4.48677L33.8062 9.76557V2.16796ZM27.104 5.90099C26.1739 7.02516 25.4874 8.32933 25.0874 9.73064L33.8062 18.6188V12.594L27.104 5.90099ZM45.7666 11.5388L35.8089 21.4829V23.1651C37.6175 23.07 39.3747 22.512 40.9098 21.5407C42.6019 20.4701 43.9545 18.9413 44.8101 17.1325C45.6348 15.3889 45.9649 13.4543 45.7666 11.5388ZM33.8062 32.5131V21.4769L24.1262 11.6088L14.4463 21.4769V32.5131H16.449V22.4679L24.1262 14.7619L31.8034 22.4679V32.5131H33.8062ZM29.8007 32.5131V23.2933L24.1262 17.5976L18.4518 23.2933V32.5131H20.6771V24.2276L24.1262 21.0394L27.5754 24.2276V32.5131H29.8007ZM22.6798 25.1016V32.5131L25.5727 32.5131V25.1016L24.1262 23.7646L22.6798 25.1016Z" fill="#6ECECA"/>
<path d="M80.6774 48.7404H78.9804V47.6475C78.718 48.0814 78.4147 48.4007 78.0704 48.6054C77.7261 48.81 77.3244 48.9124 76.8653 48.9124C76.1849 48.9124 75.652 48.7077 75.2667 48.2983C74.8814 47.8972 74.6887 47.3364 74.6887 46.616V42.4161H76.4226V46.3458C76.4226 46.6733 76.5046 46.9271 76.6685 47.1072C76.8325 47.2955 77.0538 47.3896 77.3326 47.3896C77.6605 47.3896 77.972 47.2668 78.2672 47.0212C78.5623 46.7756 78.7877 46.4645 78.9435 46.0879V42.4161H80.6774V48.7404Z" fill="#6ECECA"/>
<path d="M73.4392 48.7404H71.7422V47.6475C71.4799 48.0814 71.1765 48.4007 70.8322 48.6054C70.4879 48.81 70.0862 48.9124 69.6271 48.9124C68.9467 48.9124 68.4138 48.7077 68.0285 48.2983C67.6432 47.8972 67.4505 47.3364 67.4505 46.616V42.4161H69.1844V46.3458C69.1844 46.6733 69.2664 46.9271 69.4304 47.1072C69.5943 47.2955 69.8157 47.3896 70.0944 47.3896C70.4223 47.3896 70.7338 47.2668 71.029 47.0212C71.3241 46.7756 71.5496 46.4645 71.7053 46.0879V42.4161H73.4392V48.7404Z" fill="#6ECECA"/>
<path d="M60.3987 48.7404L62.2925 48.9124L63.6943 44.3564L65.0347 48.765H66.8916L64.6658 42.4407H62.6368L60.3987 48.7404Z" fill="#6ECECA"/>
<path d="M57.1028 49.0966C56.078 49.0966 55.2705 48.8018 54.6802 48.2124C54.0982 47.6229 53.8072 46.8043 53.8072 45.7564C53.8072 45.0769 53.9342 44.4874 54.1884 43.988C54.4425 43.4804 54.7991 43.0916 55.2582 42.8214C55.7255 42.5512 56.2707 42.4161 56.8937 42.4161C57.8119 42.4161 58.5169 42.7109 59.0088 43.3003C59.5007 43.8898 59.7466 44.7412 59.7466 45.8546C59.7466 46.0429 59.7425 46.1821 59.7343 46.2721H55.5533C55.6353 46.706 55.8239 47.0376 56.119 47.2668C56.4141 47.4879 56.8117 47.5984 57.3118 47.5984C57.6151 47.5984 57.9308 47.5615 58.2587 47.4879C58.5866 47.406 58.8735 47.2996 59.1195 47.1686L59.4023 48.5562C59.0744 48.7282 58.7096 48.8591 58.3079 48.9492C57.9144 49.0474 57.5127 49.0966 57.1028 49.0966ZM58.0865 44.9704C58.0619 44.6184 57.939 44.34 57.7176 44.1354C57.4963 43.9225 57.2011 43.8161 56.8322 43.8161C56.4797 43.8161 56.1887 43.9184 55.9591 44.1231C55.7378 44.3278 55.5984 44.6102 55.541 44.9704H58.0865Z" fill="#6ECECA"/>
<path d="M46.8927 42.5881H48.5774L48.5405 43.4108H48.5897C48.8028 43.0834 49.0611 42.8337 49.3644 42.6617C49.6759 42.4898 50.0284 42.4039 50.422 42.4039C51.1352 42.4039 51.6926 42.6781 52.0943 43.2266C52.5042 43.767 52.7092 44.5242 52.7092 45.4985C52.7092 46.6528 52.4059 47.5411 51.7992 48.1633C51.2008 48.7773 50.3441 49.0843 49.2291 49.0843C49.0898 49.0843 48.8807 49.0761 48.602 49.0597V51.5894H46.8927V42.5881ZM49.4013 47.5738C49.9178 47.5738 50.3072 47.406 50.5695 47.0703C50.84 46.7347 50.9753 46.2435 50.9753 45.5967C50.9753 45.0728 50.8892 44.6634 50.7171 44.3687C50.5531 44.0658 50.3236 43.9143 50.0284 43.9143C49.7661 43.9143 49.512 44.0289 49.266 44.2582C49.0201 44.4792 48.7987 44.7985 48.602 45.216V47.4633C48.8807 47.537 49.1472 47.5738 49.4013 47.5738Z" fill="#6ECECA"/>
<path d="M42.0576 49.0966C41.4017 49.0966 40.8811 48.8182 40.4958 48.2615C40.1105 47.7048 39.9179 46.9475 39.9179 45.9897C39.9179 44.8272 40.213 43.943 40.8033 43.3372C41.3935 42.7232 42.242 42.4161 43.3487 42.4161C43.9718 42.4161 44.7014 42.5144 45.5376 42.7109V48.9124H43.8898L43.9267 47.9054H43.8775C43.6644 48.2902 43.402 48.5849 43.0905 48.7896C42.7872 48.9942 42.4429 49.0966 42.0576 49.0966ZM42.4265 47.5861C42.6806 47.5861 42.9307 47.451 43.1766 47.1809C43.4225 46.9107 43.6521 46.5505 43.8652 46.1002V44.0371C43.6029 43.9634 43.3406 43.9266 43.0782 43.9266C42.5863 43.9266 42.2133 44.0944 41.9592 44.4301C41.7132 44.7658 41.5903 45.2611 41.5903 45.916C41.5903 46.4318 41.6641 46.8411 41.8116 47.144C41.9592 47.4387 42.1641 47.5861 42.4265 47.5861Z" fill="#6ECECA"/>
<path d="M33.1535 40.7338H34.9366V43.902L37.6051 40.7338H39.7325L36.3631 44.6143L39.5603 48.9124H37.396L34.9366 45.609V48.9124H33.1535V40.7338Z" fill="#6ECECA"/>
<path d="M23.889 49.072C22.5773 49.072 21.5525 48.72 20.8147 48.0159C20.0769 47.3118 19.708 46.3171 19.708 45.0318C19.708 44.1558 19.8801 43.3822 20.2244 42.7109C20.577 42.0396 21.0729 41.5238 21.7124 41.1636C22.3518 40.7952 23.0897 40.611 23.9259 40.611C24.6063 40.611 25.2621 40.7338 25.8934 40.9794L25.5614 42.5635C25.0039 42.3097 24.4628 42.1828 23.9381 42.1828C23.1921 42.1828 22.6019 42.4284 22.1674 42.9196C21.7329 43.4027 21.5156 44.0494 21.5156 44.8599C21.5156 45.6868 21.7452 46.3294 22.2043 46.7879C22.6634 47.2463 23.2987 47.4756 24.1103 47.4756C24.6432 47.4756 25.1597 47.3896 25.6597 47.2177L25.9303 48.7282C25.3318 48.9574 24.6514 49.072 23.889 49.072Z" fill="#6ECECA"/>
<path d="M13.0587 40.7338H14.8657V43.902L17.5341 40.7338H19.6615L16.2921 44.6143L19.4893 48.9124H17.3251L14.8657 45.609V48.9124H13.0587V45.609L10.5993 48.9124H8.43505L11.6323 44.6143L8.26289 40.7338H10.3903L13.0587 43.902V40.7338Z" fill="#6ECECA"/>
<path d="M7.21325 40.7338H5.12275L1.72877 46.4686V40.7338H0.0932617V48.9124H2.15916L5.57774 43.1407V48.9124H7.21325V40.7338Z" fill="#6ECECA"/>
</g>
<defs>
<clipPath id="clip0_1_411">
<rect width="81" height="52" fill="white"/>
</clipPath>
</defs>
</svg>
