<svg width="133" height="85" viewBox="0 0 133 85" fill="none" xmlns="http://www.w3.org/2000/svg">
<g clip-path="url(#clip0_1_331)">
<path fill-rule="evenodd" clip-rule="evenodd" d="M64.3354 1.14016C60.619 -0.0752905 56.6317 -0.215853 52.838 0.734847C49.0443 1.68555 45.6005 3.68837 42.9077 6.50997C40.3205 9.22104 38.5289 12.5808 37.7223 16.2249L20.4322 33.772L20.4322 53.1465H0.15332V56.4157L132.47 56.4157V53.1465L58.7976 53.1465V41.1392C62.3908 40.981 65.8859 39.8918 68.933 37.9724C72.2379 35.8908 74.8797 32.9183 76.5506 29.4015C78.2216 25.8846 78.853 21.9681 78.3712 18.1083C78.2835 17.406 78.1596 16.7109 78.0007 16.0255L78.0468 15.9797L77.9726 15.906C77.2491 12.869 75.8358 10.0258 73.8292 7.60003C71.3442 4.5959 68.0518 2.35561 64.3354 1.14016ZM74.3119 15.0694C73.6417 13.1147 72.6209 11.2863 71.2893 9.67653C71.0611 9.40063 70.8248 9.13239 70.5807 8.87211L58.7976 20.5864V30.4929L74.3119 15.0694ZM68.1161 6.69894C66.6591 5.64176 65.0381 4.81158 63.3077 4.24566C61.8411 3.76599 60.3242 3.48544 58.7976 3.40545V15.963L68.1161 6.69894ZM55.5091 3.54384C54.8825 3.6299 54.2591 3.75022 53.6418 3.90491C51.1347 4.5332 48.8093 5.70806 46.8295 7.33421L55.5091 15.963V3.54384ZM44.5042 9.64591C42.9771 11.4835 41.8499 13.6153 41.1931 15.9059L55.5091 30.4347V20.5864L44.5042 9.64591ZM75.1479 18.8616L58.7976 35.1163V37.8662C61.7672 37.7106 64.6524 36.7985 67.173 35.2108C69.9514 33.4608 72.1724 30.9618 73.5772 28.0052C74.9314 25.155 75.4734 21.9926 75.1479 18.8616ZM55.5091 53.1465V35.1065L39.6149 18.976L23.7206 35.1065V53.1465H27.0091V36.7265L39.6149 24.1301L52.2206 36.7265V53.1465H55.5091ZM48.9322 53.1465V38.0757L39.6149 28.7654L30.2976 38.0757V53.1465H33.9514V39.6029L39.6149 34.3913L45.2783 39.6029V53.1465H48.9322ZM37.2399 41.0316V53.1465L41.9899 53.1465V41.0316L39.6149 38.8461L37.2399 41.0316Z" fill="white"/>
<path d="M132.47 79.6719H129.684V77.8853C129.253 78.5946 128.755 79.1165 128.19 79.4511C127.625 79.7856 126.965 79.9529 126.211 79.9529C125.094 79.9529 124.219 79.6183 123.586 78.9492C122.954 78.2935 122.637 77.3768 122.637 76.1992V69.3341H125.484V75.7576C125.484 76.2928 125.619 76.7077 125.888 77.0021C126.157 77.3099 126.521 77.4638 126.978 77.4638C127.517 77.4638 128.028 77.2631 128.513 76.8616C128.998 76.4601 129.368 75.9516 129.623 75.336V69.3341H132.47V79.6719Z" fill="white"/>
<path d="M120.586 79.6719H117.799V77.8853C117.368 78.5946 116.87 79.1165 116.305 79.4511C115.74 79.7856 115.08 79.9529 114.326 79.9529C113.209 79.9529 112.334 79.6183 111.701 78.9492C111.069 78.2935 110.752 77.3768 110.752 76.1992V69.3341H113.599V75.7576C113.599 76.2928 113.734 76.7077 114.003 77.0021C114.272 77.3099 114.636 77.4638 115.093 77.4638C115.632 77.4638 116.143 77.2631 116.628 76.8616C117.113 76.4601 117.483 75.9516 117.739 75.336V69.3341H120.586V79.6719Z" fill="white"/>
<path d="M99.1734 79.6719L102.283 79.9529L104.585 72.5057L106.786 79.712H109.835L106.18 69.3742H102.848L99.1734 79.6719Z" fill="white"/>
<path d="M93.7615 80.254C92.0789 80.254 90.753 79.7722 89.7838 78.8087C88.8281 77.8452 88.3502 76.507 88.3502 74.794C88.3502 73.6833 88.5589 72.7198 88.9762 71.9035C89.3934 71.0738 89.979 70.4381 90.7328 69.9965C91.5001 69.5549 92.3952 69.3341 93.4183 69.3341C94.9259 69.3341 96.0835 69.8158 96.8912 70.7794C97.6988 71.7429 98.1027 73.1346 98.1027 74.9546C98.1027 75.2624 98.0959 75.4899 98.0825 75.6371H91.2174C91.352 76.3464 91.6616 76.8884 92.1462 77.2631C92.6308 77.6244 93.2837 77.805 94.1048 77.805C94.6028 77.805 95.1211 77.7448 95.6595 77.6244C96.198 77.4906 96.6691 77.3166 97.0729 77.1025L97.5373 79.3708C96.9989 79.6518 96.3999 79.8659 95.7403 80.0131C95.0942 80.1737 94.4346 80.254 93.7615 80.254ZM95.3768 73.5093C95.3365 72.9339 95.1345 72.4789 94.7711 72.1444C94.4076 71.7964 93.923 71.6224 93.3173 71.6224C92.7385 71.6224 92.2606 71.7897 91.8837 72.1243C91.5203 72.4588 91.2914 72.9205 91.1972 73.5093H95.3768Z" fill="white"/>
<path d="M76.9968 69.6151H79.7631L79.7025 70.96H79.7833C80.1333 70.4247 80.5573 70.0166 81.0553 69.7356C81.5668 69.4545 82.1457 69.314 82.7918 69.314C83.9629 69.314 84.8782 69.7623 85.5378 70.6589C86.2109 71.5422 86.5474 72.78 86.5474 74.3725C86.5474 76.2594 86.0493 77.7114 85.0532 78.7284C84.0706 79.7321 82.6639 80.2339 80.8332 80.2339C80.6044 80.2339 80.2611 80.2205 79.8035 80.1938V84.3289H76.9968V69.6151ZM81.1159 77.7649C81.9639 77.7649 82.6033 77.4906 83.0341 76.9419C83.4783 76.3932 83.7004 75.5903 83.7004 74.5331C83.7004 73.6766 83.5591 73.0075 83.2764 72.5257C83.0072 72.0306 82.6303 71.783 82.1457 71.783C81.7149 71.783 81.2976 71.9704 80.8938 72.3451C80.49 72.7064 80.1265 73.2283 79.8035 73.9108V77.5842C80.2611 77.7047 80.6986 77.7649 81.1159 77.7649Z" fill="white"/>
<path d="M69.0577 80.254C67.9808 80.254 67.126 79.799 66.4934 78.889C65.8607 77.979 65.5444 76.7412 65.5444 75.1754C65.5444 73.2752 66.029 71.8299 66.9981 70.8396C67.9673 69.8359 69.3605 69.3341 71.1778 69.3341C72.2008 69.3341 73.3988 69.4947 74.7718 69.8158V79.9529H72.0662L72.1268 78.3069H72.046C71.696 78.9358 71.2653 79.4176 70.7538 79.7522C70.2557 80.0867 69.6903 80.254 69.0577 80.254ZM69.6634 77.785C70.0807 77.785 70.4913 77.5642 70.8951 77.1225C71.2989 76.6809 71.6758 76.0921 72.0258 75.3561V71.9838C71.5951 71.8633 71.1643 71.8031 70.7336 71.8031C69.9259 71.8031 69.3134 72.0774 68.8961 72.6261C68.4923 73.1748 68.2904 73.9844 68.2904 75.055C68.2904 75.8981 68.4115 76.5672 68.6538 77.0623C68.8961 77.5441 69.2327 77.785 69.6634 77.785Z" fill="white"/>
<path d="M54.4375 66.584H57.3653V71.763L61.7468 66.584H65.2399L59.7075 72.9272L64.9572 79.9529H61.4035L57.3653 74.5532V79.9529H54.4375V66.584Z" fill="white"/>
<path d="M39.2253 80.2138C37.0715 80.2138 35.3889 79.6384 34.1774 78.4875C32.9659 77.3367 32.3602 75.7107 32.3602 73.6097C32.3602 72.1778 32.6429 70.9132 33.2082 69.8158C33.787 68.7185 34.6014 67.8754 35.6514 67.2866C36.7013 66.6844 37.9128 66.3833 39.2858 66.3833C40.4031 66.3833 41.48 66.584 42.5165 66.9855L41.9713 69.575C41.056 69.1601 40.1675 68.9527 39.306 68.9527C38.0811 68.9527 37.1119 69.3542 36.3985 70.1571C35.685 70.9466 35.3283 72.0038 35.3283 73.3287C35.3283 74.6803 35.7052 75.7308 36.459 76.4802C37.2129 77.2296 38.2561 77.6043 39.5887 77.6043C40.4637 77.6043 41.3117 77.4638 42.1328 77.1828L42.577 79.6518C41.5944 80.0265 40.4771 80.2138 39.2253 80.2138Z" fill="white"/>
<path d="M21.4423 66.584H24.4092V71.763L28.7908 66.584H32.2839L26.7514 72.9272L32.0012 79.9529H28.4475L24.4092 74.5532V79.9529H21.4423V74.5532L17.404 79.9529H13.8503L19.1001 72.9272L13.5677 66.584H17.0608L21.4423 71.763V66.584Z" fill="white"/>
<path d="M11.8442 66.584H8.41162L2.83878 75.9583V66.584H0.15332V79.9529H3.54548L9.1587 70.5184V79.9529H11.8442V66.584Z" fill="white"/>
</g>
<defs>
<clipPath id="clip0_1_331">
<rect width="133" height="85" fill="white"/>
</clipPath>
</defs>
</svg>
