<svg width="24" height="25" viewBox="0 0 24 25" fill="none" xmlns="http://www.w3.org/2000/svg">
<path d="M5.44947 22.5681C7.48407 23.7755 9.4264 24.4988 11.9951 24.5C18.6088 24.5 23.9964 19.1192 24 12.5042C24.0024 5.87594 18.6404 0.502427 12.0049 0.5C5.38634 0.5 0.00242932 5.8808 1.3944e-06 12.4945C-0.00121257 15.1946 0.79029 17.2164 2.11958 19.3316L0.90683 23.7585L5.44947 22.5681Z" fill="black"/>
<path d="M17.4142 14.8819C17.7122 15.0309 17.9102 15.1049 17.9842 15.2289C18.0592 15.3529 18.0592 15.9479 17.8112 16.6429C17.5632 17.3369 16.3762 17.9709 15.8052 18.0559C15.2932 18.1319 14.6452 18.1639 13.9332 17.9379C13.5022 17.8009 12.9482 17.6179 12.2392 17.3119C9.25819 16.0249 7.31219 13.0229 7.16319 12.8249L7.15967 12.8202C6.9991 12.6054 5.9502 11.2028 5.9502 9.7509C5.9502 8.2879 6.71819 7.5699 6.99019 7.2719C7.26219 6.9739 7.58419 6.8999 7.78219 6.8999L8.35219 6.9099C8.53419 6.9189 8.77919 6.8409 9.02119 7.4199C9.26819 8.0149 9.86219 9.4779 9.93719 9.6259C10.0122 9.7749 10.0612 9.9489 9.96219 10.1469C9.86219 10.3459 9.81319 10.4699 9.66219 10.6419C9.51319 10.8159 9.35019 11.0299 9.21619 11.1629C9.06819 11.3109 8.91319 11.4719 9.08619 11.7689C9.25919 12.0669 9.85619 13.0399 10.7392 13.8279C11.8742 14.8409 12.8322 15.1539 13.1292 15.3029C13.4262 15.4519 13.6002 15.4269 13.7732 15.2289C13.9462 15.0309 14.5162 14.3609 14.7142 14.0639C14.9132 13.7659 15.1112 13.8159 15.3832 13.9149C15.6562 14.0139 17.1172 14.7329 17.4142 14.8819Z" fill="white"/>
</svg>
